<svg height="493pt" viewBox="-21 0 493 493.90101" width="493pt" xmlns="http://www.w3.org/2000/svg"><path d="m320.179688 195.109375c0 38.679687-24.160157 71.839844-58.277344 86.941406v19.378907h-82.0625v-19.738282c-34.609375-14.78125-58.417969-48.089844-58.277344-86.921875.179688-49.75 41.398438-91.859375 93.070312-94.898437 57.660157-3.390625 105.546876 40.570312 105.546876 95.238281zm0 0" fill="#fedb41"/><path d="m261.902344 301.429688v37.511718c-.003906 11.042969-8.957032 19.996094-20 20h-42.0625c-11.042969-.003906-19.996094-8.957031-20-20v-37.511718zm0 0" fill="#00acea"/><g fill="#083863"><path d="m8.457031 493.902344c1.773438 0 3.5-.589844 4.898438-1.679688l100.902343-78.261718 153.683594 57.648437c2.6875 1.007813 5.707032.5 7.914063-1.332031l158.007812-130.984375-4.4375 57.703125c-.339843 4.40625 2.957031 8.253906 7.363281 8.589844.207032.015624.414063.023437.621094.023437 4.175782-.003906 7.648438-3.222656 7.96875-7.386719l5.886719-76.578125c.164063-2.125-.523437-4.222656-1.914063-5.835937-1.390624-1.613282-3.367187-2.605469-5.492187-2.757813l-82.46875-5.890625c-2.859375-.222656-5.625 1.105469-7.238281 3.476563-1.613282 2.375-1.832032 5.433593-.570313 8.011719 1.257813 2.578124 3.804688 4.285156 6.667969 4.46875l62.652344 4.476562-153.683594 127.40625-153.527344-57.589844c-2.601562-.976562-5.519531-.535156-7.714844 1.167969l-104.429687 81c-2.703125 2.097656-3.773437 5.679687-2.664063 8.917969 1.109376 3.234375 4.152344 5.40625 7.574219 5.40625zm0 0"/><path d="m171.871094 286.828125v52.113281c.003906 15.453125 12.515625 27.984375 27.96875 28.007813h42.0625c15.453125-.023438 27.964844-12.554688 27.96875-28.007813v-51.820312c36-17.824219 58.300781-53.402344 58.300781-92.011719 0-28.046875-11.453125-54.300781-32.265625-73.925781-22.082031-20.558594-51.632812-31.152344-81.742188-29.300782-26.894531 1.550782-52.238281 13.078126-71.085937 32.320313-18.9375 19.320313-29.402344 44.371094-29.5 70.535156-.144531 39.105469 22.292969 74.695313 58.292969 92.089844zm70.03125 64.121094h-42.0625c-6.617188-.015625-11.972656-5.390625-11.96875-12.007813v-29.992187h66v29.992187c.003906 6.617188-5.351563 11.992188-11.96875 12.007813zm-87.402344-215.546875c16.070312-16.402344 37.675781-26.226563 60.601562-27.546875 1.875-.109375 3.746094-.164063 5.617188-.164063 23.820312-.085937 46.777344 8.902344 64.210938 25.132813 17.574218 16.570312 27.25 38.691406 27.25 62.285156 0 33.984375-21.019532 65.238281-53.53125 79.625-2.898438 1.28125-4.769532 4.148437-4.777344 7.316406v10.898438h-66v-11.257813c-.007813-3.207031-1.921875-6.101562-4.871094-7.359375-32.578125-13.910156-53.554688-45.128906-53.433594-79.53125.082032-21.976562 8.929688-43.070312 24.933594-59.398437zm0 0"/><path d="m220.871094 64.78125c4.417968 0 8-3.582031 8-8v-48.78125c0-4.417969-3.582032-8-8-8-4.417969 0-8 3.582031-8 8v48.78125c0 4.417969 3.582031 8 8 8zm0 0"/><path d="m31.222656 197.949219h50.757813c4.417969 0 8-3.582031 8-8s-3.582031-8-8-8h-50.757813c-4.417968 0-8 3.582031-8 8s3.582032 8 8 8zm0 0"/><path d="m351.761719 189.949219c0 4.417969 3.582031 8 8 8h50.757812c4.421875 0 8-3.582031 8-8s-3.578125-8-8-8h-50.757812c-4.417969 0-8 3.582031-8 8zm0 0"/><path d="m117.488281 101.597656c3.207031 3.046875 8.269531 2.914063 11.3125-.289062s2.914063-8.265625-.289062-11.308594l-36.140625-34.339844c-3.203125-3.042968-8.265625-2.914062-11.3125.289063-3.042969 3.203125-2.914063 8.265625.289062 11.3125zm0 0"/><path d="m318.742188 103.800781c2.050781 0 4.023437-.785156 5.511718-2.199219l36.136719-34.339843c3.203125-3.046875 3.335937-8.109375.292969-11.3125-3.046875-3.203125-8.109375-3.332031-11.3125-.289063l-36.140625 34.339844c-2.371094 2.253906-3.132813 5.726562-1.917969 8.769531 1.214844 3.039063 4.15625 5.03125 7.429688 5.03125zm0 0"/></g></svg>