<svg height="512pt" viewBox="0 0 512 512" width="512pt" xmlns="http://www.w3.org/2000/svg"><path d="m512 256c0 141.386719-114.613281 256-256 256s-256-114.613281-256-256 114.613281-256 256-256 256 114.613281 256 256zm0 0" fill="#ff9f00"/><path d="m512 256c0-15.019531-1.304688-29.734375-3.789062-44.046875l-138.472657-138.472656-224.09375 360.792969 75.332031 75.332031c11.449219 1.566406 23.140626 2.394531 35.023438 2.394531 141.386719 0 256-114.613281 256-256zm0 0" fill="#ff7816"/><path d="m379.804688 130.601562v223.023438l-22.230469 22.96875h-200.050781l-22.226563-22.96875v-223.023438l22.226563-22.226562h200.050781zm0 0" fill="#005285"/><path d="m379.804688 130.601562v223.023438l-22.230469 22.96875h-100.023438v-268.21875h100.023438zm0 0" fill="#003e67"/><path d="m157.523438 108.375h200.050781v268.21875h-200.050781zm0 0" fill="#96fff6"/><path d="m257.550781 108.375h100.023438v268.21875h-100.023438zm0 0" fill="#3dd1d1"/><path d="m201.980469 309.167969h111.140625v22.226562h-111.140625zm0 0" fill="#005285"/><path d="m268.664062 224.480469v23.117187l28.453126 18.890625-12.449219 18.671875-27.117188-18.226562-27.117187 18.226562-12.449219-18.671875 28.453125-18.890625v-23.117187l-52.015625 17.335937-7.113281-20.894531 59.128906-19.78125v-47.570313h22.226562v47.570313l59.125 19.78125-7.109374 20.894531zm0 0" fill="#005285"/><path d="m268.664062 224.480469v23.117187l28.453126 18.890625-12.449219 18.671875-27.117188-18.226562v-113.363282h11.113281v47.570313l59.125 19.78125-7.109374 20.894531zm0 0" fill="#003e67"/><path d="m379.804688 97.261719v33.339843h-244.507813v-33.339843c0-18.449219 14.890625-33.34375 33.339844-33.34375h177.824219c18.449218 0 33.34375 14.894531 33.34375 33.34375zm0 0" fill="#0065a3"/><path d="m257.550781 309.167969h55.570313v22.226562h-55.570313zm0 0" fill="#003e67"/><path d="m379.804688 97.261719v33.339843h-122.253907v-66.683593h88.910157c18.449218 0 33.34375 14.894531 33.34375 33.34375zm0 0" fill="#005285"/><path d="m379.804688 353.625v56.308594c0 18.449218-14.894532 33.34375-33.34375 33.34375h-177.824219c-18.449219 0-33.339844-14.894532-33.339844-33.34375v-56.308594zm0 0" fill="#0065a3"/><path d="m257.550781 353.625h122.253907v56.308594c0 18.449218-14.894532 33.34375-33.34375 33.34375h-88.910157zm0 0" fill="#005285"/><path d="m246.4375 376.59375h22.226562v22.226562h-22.226562zm0 0" fill="#51faff"/><path d="m257.550781 376.59375h11.113281v22.226562h-11.113281zm0 0" fill="#25d9f8"/></svg>