<svg height="457pt" viewBox="0 -74 457.49695 457" width="457pt" xmlns="http://www.w3.org/2000/svg"><path d="m438.691406 172.050781c15.128906 15.128907 15.128906 39.660157 0 54.789063-15.132812 15.128906-39.660156 15.128906-54.792968 0-15.128907-15.128906-15.128907-39.660156 0-54.789063 15.132812-15.128906 39.660156-15.128906 54.792968 0zm0 0" fill="#00efd1"/><path d="m177 48.691406h-169.039062v-40.632812h331.019531v40.632812zm0 0" fill="#00acea"/><path d="m178.210938 222.949219c21.398437.003906 38.742187 17.351562 38.738281 38.75-.003907 21.398437-17.351563 38.742187-38.75 38.742187-21.398438-.003906-38.742188-17.351562-38.738281-38.75-.003907-21.402344 17.347656-38.75 38.75-38.742187zm0 0" fill="#fedb41"/><path d="m65.359375 222.949219c21.398437 0 38.75 17.34375 38.75 38.746093 0 21.398438-17.347656 38.746094-38.746094 38.746094-21.398437-.003906-38.746093-17.351562-38.742187-38.75 0-21.394531 17.34375-38.738281 38.738281-38.742187zm0 0" fill="#fedb41"/><path d="m7.960938 56.25h48.039062v159.644531c-23.789062 4.84375-39.917969 27.082031-37.136719 51.199219 2.785157 24.117188 23.554688 42.09375 47.824219 41.394531 24.265625-.703125 43.960938-19.855469 45.347656-44.09375 1.382813-24.234375-16.003906-45.503906-40.035156-48.964843v-159.179688h97v159.617188c-23.789062 4.773437-39.96875 26.953124-37.257812 51.0625 2.714843 24.109374 23.421874 42.136718 47.675781 41.507812 24.253906-.632812 43.996093-19.714844 45.449219-43.933594 1.453124-24.21875-15.863282-45.527344-39.867188-49.054687v-159.199219h71.425781l116.332031 116.542969c-12.707031 18.609375-10.40625 43.621093 5.484376 59.597656 17.5625 17.324219 45.589843 17.945313 63.898437 1.410156 18.3125-16.53125 20.546875-44.476562 5.09375-63.710937-15.449219-19.230469-43.21875-23.074219-63.308594-8.757813l-104.871093-105.082031h59.925781c4.417969 0 8.019531-3.140625 8.019531-7.558594v-40.632812c-.011719-2.101563-.867188-4.113282-2.375-5.582032s-3.542969-2.269531-5.644531-2.226562h-331.019531c-2.097657-.042969-4.125.761719-5.621094 2.234375-1.5 1.46875-2.339844 3.476563-2.339844 5.574219v40.632812c0 4.417969 3.542969 7.558594 7.960938 7.558594zm88.148437 205.441406c.003906 16.980469-13.757813 30.746094-30.738281 30.75-16.980469 0-30.75-13.761718-30.75-30.742187-.003906-16.980469 13.757812-30.746094 30.738281-30.75 16.972656.019531 30.726563 13.769531 30.75 30.742187zm112.839844 0c.003906 16.980469-13.761719 30.746094-30.742188 30.75-16.980469 0-30.746093-13.765625-30.746093-30.746094 0-16.984374 13.769531-30.746093 30.75-30.746093 16.96875.023437 30.71875 13.773437 30.738281 30.742187zm202.351562-92.996094c8.15625-.023437 15.984375 3.222657 21.734375 9.011719 10.355469 10.367188 11.949219 26.609375 3.800782 38.789063-8.148438 12.183594-23.765626 16.914062-37.304688 11.300781-13.535156-5.613281-21.226562-20.003906-18.363281-34.378906 2.859375-14.375 15.476562-24.726563 30.128906-24.726563zm-395.300781-152.445312h315v24h-315zm0 0" fill="#083863"/></svg>